<?xml version="1.0" encoding="UTF-8"?>
<!-- LINE friend-add QR (V4-H, center-logo) : https://line.me/ti/p/~hewigovens
     Drop-in replacement: keep it a square SVG with a white background.
     For print, convert the "LINE" text to outlines. -->
<svg xmlns="http://www.w3.org/2000/svg" viewBox="0 0 41 41" width="160" height="160" shape-rendering="crispEdges">
  <style>@import url('https://fonts.googleapis.com/css2?family=Inter:wght@900&amp;display=swap');</style>
  <!-- white background (rounded to match the card tile) -->
  <rect width="41" height="41" rx="3" fill="#ffffff"/>
  <!-- QR dark modules -->
  <path stroke="#0f172a" stroke-width="1" fill="none" d="M4 4.5h7m1 0h1m2 0h1m1 0h2m3 0h1m2 0h2m1 0h1m1 0h7M4 5.5h1m5 0h1m2 0h2m1 0h1m1 0h6m2 0h1m1 0h1m1 0h1m5 0h1M4 6.5h1m1 0h3m1 0h1m1 0h1m3 0h2m2 0h3m2 0h4m1 0h1m1 0h3m1 0h1M4 7.5h1m1 0h3m1 0h1m3 0h1m2 0h2m2 0h1m1 0h6m1 0h1m1 0h3m1 0h1M4 8.5h1m1 0h3m1 0h1m1 0h2m1 0h2m1 0h2m2 0h4m2 0h1m1 0h1m1 0h3m1 0h1M4 9.5h1m5 0h1m2 0h1m2 0h7m1 0h1m1 0h1m3 0h1m5 0h1M4 10.5h7m1 0h1m1 0h1m1 0h1m1 0h1m1 0h1m1 0h1m1 0h1m1 0h1m1 0h1m1 0h7M12 11.5h1m1 0h3m1 0h2m2 0h2m2 0h3M9 12.5h2m2 0h1m1 0h1m3 0h1m1 0h2m1 0h1m1 0h1m1 0h1m1 0h1m1 0h1m1 0h1m1 0h1M4 13.5h1m1 0h3m2 0h1m1 0h1m3 0h4m4 0h1m1 0h1m1 0h1m1 0h2M5 14.5h1m1 0h1m1 0h4m4 0h2m1 0h2m1 0h2m1 0h1m1 0h2m1 0h1m1 0h3M4 15.5h1m1 0h1m1 0h2m3 0h1m1 0h4m1 0h1m3 0h2m2 0h2m1 0h1m2 0h1M5 16.5h2m3 0h2m1 0h1m3 0h1m1 0h2m1 0h1m2 0h1m2 0h4m1 0h1M4 17.5h4m5 0h1m2 0h1m1 0h1m1 0h6m1 0h1m2 0h2m1 0h2m1 0h1M4 18.5h3m3 0h1m1 0h1m3 0h1m1 0h2m3 0h2m1 0h1m2 0h5m1 0h1M6 19.5h1m1 0h1m4 0h1m3 0h1m1 0h1m2 0h2m5 0h1m1 0h4m1 0h1M4 20.5h3m1 0h5m2 0h1m2 0h1m4 0h2m2 0h1m1 0h1m1 0h2M4 21.5h2m5 0h1m2 0h2m5 0h1m3 0h1m1 0h4m5 0h1M4 22.5h2m1 0h1m2 0h3m1 0h3m1 0h1m2 0h4m2 0h1m2 0h5m1 0h1M4 23.5h1m2 0h3m1 0h2m1 0h1m1 0h4m2 0h2m2 0h4m3 0h3M4 24.5h10m3 0h1m2 0h1m1 0h1m1 0h1m1 0h1m2 0h1m1 0h3m2 0h1M4 25.5h1m4 0h1m1 0h1m5 0h3m1 0h3m3 0h1m3 0h2M4 26.5h1m1 0h1m1 0h4m1 0h1m1 0h1m1 0h1m2 0h5m1 0h1m1 0h1m2 0h5M4 27.5h1m4 0h1m2 0h1m1 0h1m1 0h1m2 0h1m2 0h1m1 0h1m1 0h2m3 0h4M4 28.5h2m1 0h2m1 0h4m1 0h2m2 0h2m1 0h1m1 0h1m3 0h6m2 0h1M12 29.5h1m1 0h5m2 0h2m1 0h1m3 0h1m3 0h2m2 0h1M4 30.5h7m2 0h2m1 0h1m2 0h2m1 0h1m2 0h1m1 0h2m1 0h1m1 0h2m1 0h1M4 31.5h1m5 0h1m1 0h1m2 0h1m1 0h4m2 0h1m3 0h2m3 0h4M4 32.5h1m1 0h3m1 0h1m2 0h1m1 0h1m3 0h4m1 0h2m2 0h6m1 0h2M4 33.5h1m1 0h3m1 0h1m2 0h1m2 0h1m1 0h2m1 0h1m4 0h1m2 0h1m1 0h3m2 0h1M4 34.5h1m1 0h3m1 0h1m2 0h1m2 0h1m2 0h1m1 0h1m2 0h2m6 0h1m2 0h2M4 35.5h1m5 0h1m2 0h1m5 0h3m4 0h1m2 0h2m2 0h2M4 36.5h7m2 0h3m1 0h1m1 0h3m1 0h1m1 0h1m1 0h2m1 0h1m2 0h1m1 0h1"/>
  <!-- center logo knockout + LINE wordmark -->
  <rect x="11" y="17" width="19" height="7" rx="1" fill="#ffffff"/>
  <text x="20.5" y="22.35" text-anchor="middle"
        font-family="'Inter','Helvetica Neue',Arial,sans-serif" font-weight="900"
        font-size="5" letter-spacing="0.15" fill="#0f172a" shape-rendering="auto">LINE</text>
</svg>
