<svg xmlns="http://www.w3.org/2000/svg" viewBox="0 0 1600 900" width="1600" height="900" font-family="Georgia, 'Times New Roman', Times, serif">
  <rect width="1600" height="900" fill="#EFEEE9"/>

  <!-- title -->
  <g fill="#1A1A18" font-size="60">
    <text x="100" y="150">Don't fix the code.</text>
    <text x="100" y="222">Fix the process that generates the code.</text>
  </g>

  <!-- cards -->
  <g fill="#FBFBF9" stroke="#DEDDD6" stroke-width="2">
    <rect x="100" y="300" width="440" height="440" rx="20"/>
    <rect x="580" y="300" width="440" height="440" rx="20"/>
    <rect x="1060" y="300" width="440" height="440" rx="20"/>
  </g>

  <!-- icons (Lucide, 24x24, scaled 2.333 -> 56px, centered at card x / y=430) -->
  <!-- card 1: list-tree -->
  <g transform="translate(292,402) scale(2.333)" fill="none" stroke="#2A2A2A" stroke-width="0.95" stroke-linecap="round" stroke-linejoin="round">
    <path d="M21 12h-8"/>
    <path d="M21 6H8"/>
    <path d="M21 18h-8"/>
    <path d="M3 6v4c0 1.1.9 2 2 2h3"/>
    <path d="M3 10v6c0 1.1.9 2 2 2h3"/>
  </g>
  <!-- card 2: square-pen -->
  <g transform="translate(772,402) scale(2.333)" fill="none" stroke="#2A2A2A" stroke-width="0.95" stroke-linecap="round" stroke-linejoin="round">
    <path d="M12 3H5a2 2 0 0 0-2 2v14a2 2 0 0 0 2 2h14a2 2 0 0 0 2-2v-7"/>
    <path d="M18.375 2.625a1 1 0 0 1 3 3l-9.013 9.014a2 2 0 0 1-.853.505l-2.873.84a.5.5 0 0 1-.62-.62l.84-2.873a2 2 0 0 1 .505-.852z"/>
  </g>
  <!-- card 3: gear + </> -->
  <g transform="translate(1252,402) scale(2.333)" fill="none" stroke="#2A2A2A" stroke-width="0.95" stroke-linecap="round" stroke-linejoin="round">
    <path d="M12.22 2h-.44a2 2 0 0 0-2 2v.18a2 2 0 0 1-1 1.73l-.43.25a2 2 0 0 1-2 0l-.15-.08a2 2 0 0 0-2.73.73l-.22.38a2 2 0 0 0 .73 2.73l.15.1a2 2 0 0 1 1 1.72v.51a2 2 0 0 1-1 1.74l-.15.09a2 2 0 0 0-.73 2.73l.22.38a2 2 0 0 0 2.73.73l.15-.08a2 2 0 0 1 2 0l.43.25a2 2 0 0 1 1 1.73V20a2 2 0 0 0 2 2h.44a2 2 0 0 0 2-2v-.18a2 2 0 0 1 1-1.73l.43-.25a2 2 0 0 1 2 0l.15.08a2 2 0 0 0 2.73-.73l.22-.39a2 2 0 0 0-.73-2.73l-.15-.08a2 2 0 0 1-1-1.74v-.5a2 2 0 0 1 1-1.74l.15-.09a2 2 0 0 0 .73-2.73l-.22-.38a2 2 0 0 0-2.73-.73l-.15.08a2 2 0 0 1-2 0l-.43-.25a2 2 0 0 1-1-1.73V4a2 2 0 0 0-2-2z"/>
    <path d="m10.6 10.4-1.6 1.6 1.6 1.6"/>
    <path d="m13.4 10.4 1.6 1.6-1.6 1.6"/>
  </g>

  <!-- card text -->
  <g fill="#1A1A18" font-size="31" text-anchor="middle">
    <text x="320" y="556">Sample some</text>
    <text x="320" y="599">of the results</text>

    <text x="800" y="534">Edit prompts to</text>
    <text x="800" y="577">handle things that</text>
    <text x="800" y="620">went wrong</text>

    <text x="1280" y="556">Regenerate</text>
    <text x="1280" y="599">the code</text>
  </g>
</svg>
