<svg width="512" height="512" viewBox="0 0 512 512" fill="none" xmlns="http://www.w3.org/2000/svg">
  <rect width="512" height="512" rx="112" fill="#0F172A"/>
  <path d="M104 364C150 284 205 234 272 214C329 197 378 203 408 218" stroke="#A78BFA" stroke-width="28" stroke-linecap="round"/>
  <path d="M104 268C155 216 203 190 248 190C306 190 348 223 408 290" stroke="#38BDF8" stroke-width="28" stroke-linecap="round"/>
  <circle cx="124" cy="364" r="34" fill="#FDBA74" stroke="#FFF7ED" stroke-width="10"/>
  <circle cx="256" cy="206" r="34" fill="#38BDF8" stroke="#ECFEFF" stroke-width="10"/>
  <circle cx="388" cy="236" r="34" fill="#A78BFA" stroke="#F5F3FF" stroke-width="10"/>
  <circle cx="388" cy="302" r="26" fill="#34D399" stroke="#ECFDF5" stroke-width="10"/>
  <path d="M150 128H210C234 128 248 142 248 166V320C248 362 224 386 182 386H152" stroke="#F8FAFC" stroke-width="30" stroke-linecap="round" stroke-linejoin="round"/>
  <path d="M272 128H332C356 128 370 142 370 166V342C370 384 346 408 304 408H274" stroke="#F8FAFC" stroke-width="30" stroke-linecap="round" stroke-linejoin="round" opacity="0.92"/>
  <path d="M194 270H304" stroke="#F8FAFC" stroke-width="30" stroke-linecap="round" opacity="0.92"/>
</svg>
