<svg xmlns="http://www.w3.org/2000/svg" viewBox="0 0 24 24" width="512" height="512">
  <circle cx="12" cy="12" r="12" fill="#2AABEE"/>
  <path d="M5.432 11.873l7.185-3.152c1.306-.543 3.07-1.18 3.07-1.18s1.097-.427 1.005.61c-.03.427-.275 1.924-.52 3.543l-.764 4.78s-.061.703-.581.825c-.52.122-1.372-.427-1.525-.55-.122-.091-2.267-1.454-3.052-2.108-.214-.183-.459-.55.03-1.005l3.176-3.02c.367-.367-.092-.58-.581-.214L8.78 13.338s-.489.306-1.404.031l-1.985-.612s-.734-.458.52-.916z" fill="#fff"/>
</svg>
